<?xml version="1.0" encoding="utf-8"?>
<!-- Generator: Adobe Illustrator 24.1.0, SVG Export Plug-In . SVG Version: 6.00 Build 0)  -->
<svg version="1.1" id="Layer_1" xmlns="http://www.w3.org/2000/svg" xmlns:xlink="http://www.w3.org/1999/xlink" x="0px" y="0px"
	 viewBox="0 0 464 464" style="enable-background:new 0 0 464 464;" xml:space="preserve">
<style type="text/css">
	.st0{fill:#78BDD7;}
</style>
<path class="st0" d="M224.3,278.1l-16,64c-0.7,2.7,0.1,5.6,2.1,7.6c2,2,4.9,2.8,7.6,2.1l32-8c2.8-0.6,5.1-2.8,5.9-5.5
	c0.8-2.8,0.1-5.8-2-7.9c-2-2.1-5-2.9-7.8-2.1l-19.1,4.8l12.8-51c0.8-2.8,0-5.8-2.1-7.8c-2.1-2-5.1-2.8-7.9-2
	C227.1,273.1,225,275.3,224.3,278.1L224.3,278.1z"/>
<path class="st0" d="M194.1,256.3c-4.3-1.1-8.6,1.5-9.7,5.8c-0.1,0.3-6.8,25.9-24.2,25.9c-17.4,0-24.2-25.7-24.2-25.9
	c-1.1-4.3-5.4-6.9-9.7-5.8c-4.3,1.1-6.9,5.4-5.8,9.7c0.4,1.6,9.9,38,39.7,38c29.9,0,39.4-36.5,39.7-38
	C200.9,261.7,198.3,257.4,194.1,256.3z"/>
<path class="st0" d="M304.1,304.1c29.9,0,39.4-36.5,39.7-38c1.1-4.3-1.5-8.6-5.8-9.7c-4.3-1.1-8.6,1.5-9.7,5.8
	c-0.1,0.3-6.8,25.9-24.2,25.9c-17.4,0-24.2-25.7-24.2-25.9c-1.1-4.3-5.4-6.9-9.7-5.8c-4.3,1.1-6.9,5.4-5.8,9.7
	C264.7,267.6,274.2,304.1,304.1,304.1z"/>
<path class="st0" d="M400,217.1v-48.9c0-5.5-0.2-21.7-64-32.4v-31.6c0-24.1-15.5-45.4-38.3-53.1c4.1-5.5,6.3-12.1,6.3-18.9
	c0-17.7-14.3-32-32-32s-32,14.3-32,32c0,6.8,2.2,13.4,6.3,18.9c-5.1,1.7-9.9,4.1-14.3,7.2c-4.4-3.1-9.2-5.5-14.3-7.2
	c9.8-13.2,8-31.7-4.2-42.8c-12.2-11.1-30.8-11.1-43,0c-12.2,11.1-14,29.6-4.2,42.8c-22.8,7.6-38.3,29-38.3,53.1v31.6
	c-63.8,10.7-64,26.9-64,32.4v48.9c-18.2,4.5-32,23.8-32,47c0,23.5,14.2,43.1,32.8,47.2C72.8,397.7,145.3,464,232.1,464
	s159.3-66.3,167.2-152.7c18.6-4.1,32.7-23.7,32.7-47.2C432,240.9,418.3,221.5,400,217.1z M64.2,294.1c-10.5-6.2-16.7-17.8-16-30
	c-0.7-12.2,5.5-23.8,16-30V294.1z M272.1,16.2c8.8,0,16,7.2,16,16s-7.2,16-16,16s-16-7.2-16-16S263.3,16.2,272.1,16.2z M224.1,104.1
	c0-22.1,17.9-40,40-40h16c22.1,0,40,17.9,40,40v56h-96V104.1z M192.1,16.2c8.8,0,16,7.2,16,16s-7.2,16-16,16s-16-7.2-16-16
	S183.3,16.2,192.1,16.2z M144.1,104.1c0-22.1,17.9-40,40-40h16c7,0,13.9,1.9,20,5.4c-7.8,9.8-12,22-12,34.5v56h-64V104.1z
	 M384,296.1C384,380,316,448,232.1,448c-83.9,0-151.9-68-151.9-151.9V187c40.9,20.8,146.4,21.1,151.9,21.1S343.2,207.8,384,187
	V296.1z M232.1,192.1c-94.4,0-148.1-15.5-151.9-23.5v-0.2c1.2-2.5,12.4-10.2,48-16.5v16.2c0,4.4,3.6,8,8,8h191.9c4.4,0,8-3.6,8-8
	v-16.2c36,6.3,47.1,14.1,48,15.8C380.6,176.5,326.8,192.1,232.1,192.1z M400,294.1v-60c10.5,6.2,16.7,17.8,16,30
	C416.7,276.3,410.6,287.9,400,294.1z"/>
</svg>
