<?xml version="1.0" encoding="utf-8"?>
<!-- Generator: Adobe Illustrator 24.1.0, SVG Export Plug-In . SVG Version: 6.00 Build 0)  -->
<svg version="1.1" id="Layer_1" xmlns="http://www.w3.org/2000/svg" xmlns:xlink="http://www.w3.org/1999/xlink" x="0px" y="0px"
	 viewBox="0 0 511 511" style="enable-background:new 0 0 511 511;" xml:space="preserve">
<style type="text/css">
	.st0{fill:#78BDD7;}
</style>
<path class="st0" d="M158.5,80.8h-128C13.1,80.8-1,95-1,112.3v288c0,17.4,14.1,31.5,31.5,31.5h128c17.4,0,31.5-14.1,31.5-31.5v-288
	C190,95,175.9,80.8,158.5,80.8z M30.5,95.8h128c9.1,0,16.5,7.4,16.5,16.5v272.5H14V112.3C14,103.2,21.4,95.8,30.5,95.8z
	 M158.5,416.9h-128c-9.1,0-16.5-7.4-16.5-16.5v-0.5h161v0.5C175,409.5,167.6,416.9,158.5,416.9z"/>
<path class="st0" d="M478.5,80.8h-128c-17.4,0-31.5,14.1-31.5,31.5v288c0,17.4,14.1,31.5,31.5,31.5h128c17.4,0,31.5-14.1,31.5-31.5
	v-288C510,95,495.9,80.8,478.5,80.8z M350.5,95.8h128c9.1,0,16.5,7.4,16.5,16.5v272.5H334V112.3C334,103.2,341.4,95.8,350.5,95.8z
	 M478.5,416.9h-128c-9.1,0-16.5-7.4-16.5-16.5v-0.5h161v0.5C495,409.5,487.6,416.9,478.5,416.9z"/>
<path class="st0" d="M38.5,231.8h112c4.1,0,7.5-3.3,7.5-7.5v-96c0-4.1-3.3-7.5-7.5-7.5h-112c-4.1,0-7.5,3.3-7.5,7.5v40
	c0,4.1,3.4,7.5,7.5,7.5c4.1,0,7.5-3.3,7.5-7.5v-23.7l37,31.7l-37,31.7v-7.7c0-4.1-3.3-7.5-7.5-7.5c-4.1,0-7.5,3.3-7.5,7.5v24
	C31,228.5,34.4,231.8,38.5,231.8z M106,176.3l37-31.7v63.5L106,176.3z M58.7,135.8h71.5l-35.8,30.7L58.7,135.8z M130.3,216.8H58.7
	l35.8-30.7L130.3,216.8z"/>
<path class="st0" d="M38.5,359.8h112c4.1,0,7.5-3.4,7.5-7.5v-96c0-4.1-3.3-7.5-7.5-7.5h-112c-4.1,0-7.5,3.3-7.5,7.5v96
	C31,356.5,34.4,359.8,38.5,359.8z M143,336.1l-37-31.7l37-31.7V336.1z M130.3,344.9H58.7l35.8-30.7L130.3,344.9z M94.5,294.5
	l-35.8-30.7h71.5L94.5,294.5z M83,304.3l-37,31.7v-63.5L83,304.3z"/>
<path class="st0" d="M358.5,231.8h112c4.1,0,7.5-3.3,7.5-7.5v-48c0-4.1-3.3-7.5-7.5-7.5c-4.1,0-7.5,3.4-7.5,7.5v40.5h-97v-81h97v8.5
	c0,4.1,3.4,7.5,7.5,7.5c4.1,0,7.5-3.4,7.5-7.5v-16c0-4.1-3.3-7.5-7.5-7.5h-112c-4.1,0-7.5,3.3-7.5,7.5v96
	C351,228.5,354.4,231.8,358.5,231.8z"/>
<path class="st0" d="M470.5,248.9h-72c-4.1,0-7.5,3.3-7.5,7.5c0,4.1,3.4,7.5,7.5,7.5h72c4.1,0,7.5-3.4,7.5-7.5
	C478,252.2,474.7,248.9,470.5,248.9z"/>
<path class="st0" d="M470.5,280.9h-72c-4.1,0-7.5,3.4-7.5,7.5c0,4.1,3.4,7.5,7.5,7.5h72c4.1,0,7.5-3.4,7.5-7.5
	C478,284.2,474.7,280.9,470.5,280.9z"/>
<path class="st0" d="M470.5,344.9h-72c-4.1,0-7.5,3.4-7.5,7.5c0,4.1,3.4,7.5,7.5,7.5h72c4.1,0,7.5-3.4,7.5-7.5
	C478,348.2,474.7,344.9,470.5,344.9z"/>
<path class="st0" d="M470.5,312.9h-72c-4.1,0-7.5,3.3-7.5,7.5c0,4.1,3.4,7.5,7.5,7.5h72c4.1,0,7.5-3.4,7.5-7.5
	C478,316.2,474.7,312.9,470.5,312.9z"/>
<path class="st0" d="M358.5,263.8h8c4.1,0,7.5-3.4,7.5-7.5c0-4.1-3.4-7.5-7.5-7.5h-8c-4.1,0-7.5,3.3-7.5,7.5
	C351,260.5,354.4,263.8,358.5,263.8z"/>
<path class="st0" d="M358.5,295.8h8c4.1,0,7.5-3.4,7.5-7.5c0-4.1-3.4-7.5-7.5-7.5h-8c-4.1,0-7.5,3.4-7.5,7.5
	C351,292.5,354.4,295.8,358.5,295.8z"/>
<path class="st0" d="M358.5,359.8h8c4.1,0,7.5-3.4,7.5-7.5c0-4.1-3.4-7.5-7.5-7.5h-8c-4.1,0-7.5,3.4-7.5,7.5
	C351,356.5,354.4,359.8,358.5,359.8z"/>
<path class="st0" d="M358.5,327.8h8c4.1,0,7.5-3.4,7.5-7.5c0-4.1-3.4-7.5-7.5-7.5h-8c-4.1,0-7.5,3.3-7.5,7.5
	C351,324.5,354.4,327.8,358.5,327.8z"/>
<path class="st0" d="M298.4,249.9l-40-24c-3.5-2.1-8.1-1-10.3,2.6c-2.1,3.5-1,8.1,2.6,10.3l16.8,10.1h-53c-4.1,0-7.5,3.3-7.5,7.5
	c0,4.1,3.4,7.5,7.5,7.5h53l-16.8,10.1c-3.5,2.1-4.7,6.7-2.6,10.3c1.4,2.3,3.9,3.6,6.4,3.6c1.3,0,2.6-0.3,3.8-1.1l40-24
	c2.3-1.4,3.6-3.8,3.6-6.4C302,253.7,300.6,251.3,298.4,249.9z"/>
</svg>
