<?xml version="1.0" encoding="utf-8"?>
<!-- Generator: Adobe Illustrator 24.1.0, SVG Export Plug-In . SVG Version: 6.00 Build 0)  -->
<svg version="1.1" id="Layer_1" xmlns="http://www.w3.org/2000/svg" xmlns:xlink="http://www.w3.org/1999/xlink" x="0px" y="0px"
	 viewBox="0 0 512 512" style="enable-background:new 0 0 512 512;" xml:space="preserve">
<style type="text/css">
	.st0{fill:#78BDD7;}
</style>
<g>
	<g>
		<path class="st0" d="M491.8,3.3c-2.3-3.2-6.6-4.2-10.1-2.5L377,52.1V14.5c0-2.3-0.9-4.4-2.6-5.9c-1.6-1.5-3.9-2.3-6.1-2.2
			c-1.1,0.1-11.1,0.9-21.3,8.8c-1.7,1.3-3.3,2.8-4.8,4.3v-2c0-2.2-0.9-4.4-2.6-5.9c-1.6-1.5-3.8-2.3-6.1-2.2
			c-1.1,0.1-25.9,1.9-37.1,28.8c-12.9-0.7-41.7,0-65,17.7c-18.1,13.7-28.9,34.5-32.1,61.8c-4.2,35.8-0.5,63.4,2.2,83.6
			c3.7,27.6,4.5,39.1-8.2,48.7c-10.1-5.1-21-8.5-32.3-9.8c-8.5-35.6-32.3-55.1-67.7-55.1c-4.5,0-8.2,3.7-8.2,8.2
			c0,4.5,3.7,8.2,8.2,8.2c16.8,0,29.9,5.4,39.1,16c5.8,6.8,9.4,15,11.6,22.4c-8.8,0.6-17.6,2.5-25.9,5.7c-17-14.6-36.8-16.1-55-3.8
			c-3.7,2.5-4.7,7.6-2.2,11.3c2.5,3.7,7.6,4.7,11.3,2.2c9.9-6.7,19.8-7.2,29.4-1.5c-6.2,3.9-12.1,8.5-17.6,13.9
			c-17.3,17-27.6,38.9-28.9,61.6c-1.5,25.7,7.4,50.6,24.5,69.4c-7.9,13-22,19.4-33.4,22.5c6.4-14.4,10.5-38-2.4-72.3
			c-17-45.2-11-115.8,22.1-139.1c3.7-2.6,4.6-7.7,2-11.4c-2.6-3.7-7.7-4.6-11.4-2c-19.3,13.6-32.3,39.4-36.7,72.7
			c-3.8,28.9-0.5,60.9,8.7,85.4c18.7,49.9-4,70.7-4.9,71.5c-2.6,2.2-3.6,5.9-2.4,9.1c1.2,3.2,4.2,5.2,7.6,5.2c0.1,0,0.2,0,0.2,0
			c1.9-0.1,42.6-1.6,62.6-30.6c13.4,13.4,47.6,21.4,51.9,22.6v71.5c0,4.5,3.7,8.2,8.2,8.2h29.1h26.3c4.5,0,8.2-3.7,8.2-8.2v-72.7
			c7.4,0.7,14.7,1,21.7,1c19.7,0,36.8-2.3,47.1-4.1v75.9c0,4.5,3.7,8.2,8.2,8.2h62.7c4.5,0,8.2-3.7,8.2-8.2V386.5
			c14-13.4,23.7-29.2,28.8-47c1.2-4.3-1.3-8.8-5.6-10.1c-4.3-1.2-8.8,1.3-10.1,5.6c-4.6,16-13.6,30.1-26.9,42
			c-7.1,6.3-15.5,12.1-25,17.1c-2.7,1.4-4.3,4.2-4.3,7.2v70.2h-19.6v-93.4c0-4.5-3.7-8.2-8.2-8.2c-4.5,0-8.2,3.7-8.2,8.2v33.1
			c-12.9,2.4-44,7-75.7,2.5c-8.9-1.3-17.2-3.2-24.9-5.7c-4.3-1.4-8.9,0.9-10.3,5.2c-0.3,0.8-0.4,1.6-0.4,2.5v56.8h-12.8v-46.8
			c0-3.9-2.8-7.3-6.6-8c-0.1,0-27.9-8.4-30.5-9.3c-10.1-3.7-19.3-9.4-27.1-16.8c-16.8-16-25.7-38.5-24.4-61.7
			c2.2-38.6,36.7-72.5,75.4-74.1c2.3-0.1,4.7-0.1,7.1,0c12.6,0.6,24.9,4.3,35.7,10.6c4,2.3,7.8,5,11.4,8
			c11.3,9.6,27.5,11.4,40.3,4.5c0.8-0.4,2.8-1.6,2.8-1.6c33.6-20.6,26.2-50.5,18.4-82.2c-2.8-11.4-5.7-23.2-7.4-36.1
			c-0.6-4.5-4.7-7.6-9.2-7c-4.5,0.6-7.6,4.7-7,9.2c1.8,13.8,5,26.6,7.8,37.9c8.3,33.8,11.3,50.7-11.1,64.5c-0.3,0.2-1.5,0.9-1.9,1.1
			c-7,3.7-15.8,2.7-22-2.6c-1.3-1.1-2.6-2.1-3.9-3.1c15.9-15.4,13.2-35.5,9.9-59.9c-2.7-20.4-6.1-45.7-2.1-79.5
			c2.7-22.7,11.3-39.7,25.7-50.7c17.2-13.2,39-14.8,50.9-14.6c-0.3,2.2-0.6,4.5-0.7,6.8c-5.9,1.6-14.8,4.9-23.7,11.2
			c-13.9,9.8-30.4,29.1-30.4,65.1c0,4.5,3.7,8.2,8.2,8.2s8.2-3.7,8.2-8.2c0-54.6,44.9-61.4,46.8-61.6c4.1-0.5,7.1-4,7.1-8.1
			c0-7,0.8-13.2,2.4-18.6c3.5-12,10.4-17.9,16.1-20.8V65c0,0.2,0,0.4,0,0.6c0,1,0,1.9,0,2.6c0,4.5,3.7,8.2,8.2,8.2
			c4.5,0,8.2-3.7,8.2-8.2c0-1,0-1.9,0-3c0.5-17,5.2-29.4,14.1-36.6c1.5-1.2,2.9-2.2,4.3-2.9v34.9c-7.2,5.2-12,13.1-13.1,22.1
			c-1.3,10.7,2.7,21.2,10.9,28.1c0.2,0.2,0.5,0.4,0.7,0.6c5.8,4.7,12.8,7.1,19.9,7.1c7.3,0,14.5-2.5,20.4-7.3
			c1.2,1.8,2.5,3.6,3.7,5.3c-11.2,3.5-19,14.3-18.2,26.5c0.3,4.3,3.9,7.6,8.1,7.6c0.2,0,0.4,0,0.5,0c4.5-0.3,7.9-4.2,7.6-8.7
			c-0.3-5.4,3.7-10,9.1-10.4c1.3-0.1,2.7,0.1,4,0.6c8.2,11.3,16.3,21.9,24.2,31.7c6,7.5,10.3,15.2,12.9,22.9
			c-0.8,0.2-1.5,0.6-2.3,1.1c-2.9,2-4.1,5.7-3.1,9.1c1,3.4,4.3,5.8,7.8,5.8c0.1,0,0.2,0,0.4,0c0.1,8.9-2.3,17.5-7.2,25.3
			c-13.1,21-40.1,31-67.1,24.8c-6.6-1.5-13.2-4-19.5-7.3c-53.9-28.6-76.6-62.2-79.9-84.1c-2.5-16.7,4-33,19.3-48.3
			c3.2-3.2,3.2-8.3,0-11.5s-8.3-3.2-11.5,0c-19.2,19.2-27.2,40.1-23.9,62.2c7.4,49.6,69.5,86.1,88.4,96.1c6,3.2,12.3,5.7,18.6,7.5
			c3.8,9.3,8,23,8.5,39.2c0.1,4.4,3.8,7.9,8.1,7.9c0.1,0,0.2,0,0.3,0c4.5-0.1,8-3.9,7.9-8.4c-0.4-13.7-3.1-25.8-6.3-35.4
			c1.9,0.1,3.9,0.2,5.8,0.2c26.8,0,51.5-12.6,65-34.3c15.7-25.1,12.1-56.1-9.6-83c-13-16.1-26.4-34.3-40.1-54.4l80.2-85.4
			C493.9,10.9,494.1,6.5,491.8,3.3z M336.5,406.3c3.7-2.1,7.1-4.3,10.5-6.6v71.9h-10.5V406.3z M336.5,487.9H347v7.8h-10.5V487.9z
			 M300.6,487.9h19.6v7.8h-19.6V487.9z M189.3,426.8c3.2,0.8,6.6,1.5,9.9,2.1v43.8h-9.9V426.8z M189.3,489h9.9v6.7h-9.9V489z
			 M160.3,489H173v6.7h-12.8V489z M369.5,98.7c-0.1-0.1-0.2-0.2-0.3-0.2c0,0-0.1-0.1-0.1-0.1c-4-3.4-6-8.4-5.3-13.7
			c0.7-5.4,3.8-9.8,8.7-12.2l0.5-0.2c-0.4,7.6,0.4,17.4,3.8,29.7C374.2,101.6,371.6,100.5,369.5,98.7z M409.5,76.9L392,95.6
			c-4.4-17.3-2.4-27.9-1.1-32.1l19.6-9.6C408.9,60.9,408.1,69.1,409.5,76.9z M425.9,59.4c1.2-6.1,3.2-11.8,4.8-15.5l17.9-8.8
			L425.9,59.4z"/>
	</g>
</g>
<g>
	<g>
		<path class="st0" d="M402.5,196.2c-5.5,4.9-1.9,14.2,5.4,14.2c4.1,0,7.6-3.1,8.1-7.2C416.9,196,408,191.3,402.5,196.2z"/>
	</g>
</g>
<g>
	<g>
		<path class="st0" d="M372.6,146.8c-0.5-6.9-3.6-13.3-8.8-17.9c-5.2-4.6-11.9-6.9-18.9-6.4c-14.3,0.9-25.2,13.4-24.3,27.7
			c0.3,4.3,3.9,7.6,8.1,7.6c0.2,0,0.4,0,0.5,0c4.5-0.3,7.9-4.2,7.6-8.7c-0.4-5.4,3.7-10,9.1-10.3c2.6-0.2,5.1,0.7,7.1,2.4
			c2,1.7,3.1,4.1,3.3,6.7c0.3,4.5,4.2,7.9,8.7,7.6C369.5,155.2,372.9,151.3,372.6,146.8z"/>
	</g>
</g>
</svg>
